:SAMPLES-PER-SECOND 24
:FULLY-SPECIFIED
:DEGREES
394
root  -2.84466 39.7544 18.7484 -11.3061 23.128 -21.7382
RightUpLeg  -17.5605 -5.83236 -12.9421
RightLeg  17.958 -12.2245 -4.59077
RightFoot  -13.4454 0.0208022 6.09804
RightToes  -2.08645e-008 3.77894e-005 6.81332e-007
Spine  3.07447 2.21489 -4.40651
Spine1  5.52869 -1.90081 17.6978
HEad  -26.4 -15.1535 12.2878
LeftShoulder1  5.04363 -10.9613 -28.8291
LeftArm  4.63352 -3.83537 -34.2876
LeftForeArm  29.353 -67.3199 -24.745
LeftHand  -1.1009 -0.454772 21.8403
RightShoulder  4.67715 7.34849 37.1478
RightArm  16.2601 -20.6605 13.5306
RightForeArm  110.861 79.9733 103.538
RightHand  -0.450399 7.42515 -4.43311
LeftUpLeg  -14.5421 7.81417 9.68203
LeftLeg  6.56241 23.3204 1.63455
LeftFoot  -0.216337 -0.261527 2.69802
LeftToes  1.24767e-006 1.47042e-008 1.32732e-009
395
root  -2.9057 39.548 18.0045 -6.38171 17.888 -16.4224
RightUpLeg  -11.2536 -10.8053 -5.73522
RightLeg  22.8006 -8.83449 -4.26594
RightFoot  -12.1749 -0.0232332 8.217
RightToes  -2.08645e-008 3.77894e-005 6.81332e-007
Spine  1.14679 0.618627 -8.06126
Spine1  5.28938 -3.3227 16.9517
HEad  -25.7362 -9.91843 9.66262
LeftShoulder1  4.01927 -9.50274 -24.749
LeftArm  2.55047 -0.535097 -29.2781
LeftForeArm  82.7852 -79.7483 -77.9774
LeftHand  -0.606801 2.07785 21.1332
RightShoulder  4.36562 7.14983 35.0713
RightArm  19.9462 -34.89 11.5244
RightForeArm  124.879 79.1177 117.006
RightHand  -1.27578 8.28097 -11.109
LeftUpLeg  -14.7875 6.91164 6.86237
LeftLeg  1.33722 31.3159 -1.71486
LeftFoot  0.364526 -0.15805 1.53272
LeftToes  1.24767e-006 1.47042e-008 1.32732e-009
396
root  -2.9671 39.2578 17.1511 -1.65607 10.5479 -11.7317
RightUpLeg  -5.54354 -13.9095 -1.48242
RightLeg  29.389 -6.01714 -3.85674
RightFoot  -12.0448 -0.019022 10.2422
RightToes  -2.08645e-008 3.77894e-005 6.81332e-007
Spine  -2.39013 -0.608308 -9.17785
Spine1  6.11277 -3.85775 14.4075
HEad  -24.8975 -4.76171 7.19849
LeftShoulder1  3.71485 -8.99891 -23.4784
LeftArm  1.41918 7.29884 -22.7449
LeftForeArm  152.162 -71.7224 -148.132
LeftHand  -0.366943 3.29078 19.9871
RightShoulder  3.98436 6.8791 32.4877
RightArm  24.828 -44.0343 6.99882
RightForeArm  131.069 78.3925 123.427
RightHand  -0.362796 8.5169 -3.45075
LeftUpLeg  -16.4507 6.28748 4.87053
LeftLeg  -3.47941 38.3808 -5.75831
LeftFoot  2.1784 -0.327357 2.63412
LeftToes  1.24767e-006 1.47042e-008 1.32732e-009
397
root  -3.17352 38.7738 16.0248 3.71521 1.50427 -6.60535
RightUpLeg  -0.457174 -13.4998 -0.248992
RightLeg  32.0666 -5.15329 -3.75041
RightFoot  -15.8767 0.398992 12.4886
RightToes  -2.08645e-008 3.77894e-005 6.81332e-007
Spine  -6.42657 -0.860577 -11.6968
Spine1  5.92019 -3.25018 13.2781
HEad  -24.7414 -0.108703 5.77529
LeftShoulder1  3.57935 -8.69256 -23.0986
LeftArm  2.19746 16.4878 -20.8452
LeftForeArm  165.759 -61.1474 -161.669
LeftHand  -0.439878 2.53806 17.768
RightShoulder  3.69396 6.62869 30.5509
RightArm  28.0053 -47.4415 2.17361
RightForeArm  133.831 77.9463 126.485
RightHand  -0.559122 8.59273 -5.00353
LeftUpLeg  -21.3718 5.96059 3.0371
LeftLeg  -6.39133 46.783 -9.67665
LeftFoot  6.00021 -1.18123 7.42209
LeftToes  1.24767e-006 1.47042e-008 1.32732e-009
398
root  -3.26961 38.0098 14.3241 7.32983 -9.35074 -3.74292
RightUpLeg  4.02115 -8.55314 0.550381
RightLeg  26.0142 -8.99198 -4.9686
RightFoot  -23.3875 1.04336 11.3643
RightToes  -2.08645e-008 3.77894e-005 6.81332e-007
Spine  -4.97388 0.586431 -9.60612
Spine1  2.99389 -0.930231 9.09931
HEad  -27.9053 4.37287 3.88754
LeftShoulder1  4.02932 -9.30719 -25.3006
LeftArm  2.95472 23.1635 -20.6073
LeftForeArm  170.226 -55.3364 -165.547
LeftHand  -0.429247 2.37196 16.3433
RightShoulder  3.50842 6.3153 29.8152
RightArm  25.0759 -46.9224 1.86029
RightForeArm  136.934 77.4088 129.732
RightHand  -0.160997 9.40138 -1.65919
LeftUpLeg  -28.1191 8.60349 3.70576
LeftLeg  -3.70265 57.0965 -9.5949
LeftFoot  7.6525 -1.78196 10.3416
LeftToes  1.24767e-006 1.47042e-008 1.32732e-009
399
root  -2.93547 37.4073 12.1203 10.3168 -22.403 -5.39758
RightUpLeg  0.170963 -0.756301 2.12024
RightLeg  23.4385 -10.8932 -5.33756
RightFoot  -28.9398 0.816806 6.49293
RightToes  -2.08645e-008 3.77894e-005 6.81332e-007
Spine  0.989823 2.87485 -1.51019
Spine1  1.06309 2.26092 2.00568
HEad  -35.9795 9.5431 -0.543928
LeftShoulder1  5.64845 -11.4188 -31.8183
LeftArm  0.413317 25.8707 -20.6241
LeftForeArm  171.861 -55.5094 -165.676
LeftHand  -0.430294 2.40051 16.5381
RightShoulder  3.62946 6.34751 30.9407
RightArm  15.854 -39.5896 6.7462
RightForeArm  129.752 78.3569 123.115
RightHand  -0.394343 8.54651 -3.66349
LeftUpLeg  -35.5499 18.4218 5.94413
LeftLeg  8.57672 52.5413 -0.667199
LeftFoot  10.0719 -0.950121 4.84515
LeftToes  1.24767e-006 1.47042e-008 1.32732e-009
400
root  -2.4425 37.2141 10.1795 12.6254 -34.3852 -8.15186
RightUpLeg  -8.78016 4.82176 2.54255
RightLeg  29.4622 -6.29044 -3.98837
RightFoot  -29.1624 0.177338 2.35413
RightToes  -2.08645e-008 3.77894e-005 6.81332e-007
Spine  6.05859 3.62439 1.68363
Spine1  2.78116 3.4363 0.573277
HEad  -43.3724 16.2604 -6.07652
LeftShoulder1  7.66402 -13.5019 -38.9194
LeftArm  -5.83832 22.1404 -24.123
LeftForeArm  163.728 -67.0892 -155.646
LeftHand  -0.546957 2.04631 18.8694
RightShoulder  3.97762 6.8213 32.6356
RightArm  7.8765 -24.0509 13.2714
RightForeArm  90.7059 80.0388 82.4683
RightHand  -0.588527 7.58578 -5.60895
LeftUpLeg  -43.6807 35.0624 0.589535
LeftLeg  17.0891 18.0428 3.60162
LeftFoot  15.316 0.918589 -4.25232
LeftToes  1.24767e-006 1.47042e-008 1.32732e-009
401
root  -2.1246 37.4327 9.1244 11.5201 -40.1596 -7.9162
RightUpLeg  -11.659 6.45125 1.39629
RightLeg  32.6138 -2.58742 -2.04947
RightFoot  -27.3795 -0.00501343 1.28518
RightToes  -2.08645e-008 3.77894e-005 6.81332e-007
Spine  9.08193 2.31864 -1.3968
Spine1  4.00195 0.873241 5.51561
HEad  -42.9434 23.5063 -9.78007
LeftShoulder1  9.12964 -14.6969 -43.6843
LeftArm  -9.18282 12.5381 -25.7059
LeftForeArm  104.312 -79.5934 -99.5805
LeftHand  -0.809305 1.32371 22.8828
RightShoulder  4.24054 7.14257 33.9389
RightArm  5.03617 -10.8032 20.4043
RightForeArm  58.5569 76.942 46.5131
RightHand  -0.679906 8.15104 -6.19551
LeftUpLeg  -38.5225 28.5251 7.9636
LeftLeg  19.6732 2.27826 1.42025
LeftFoot  17.1444 1.92886 -8.03513
LeftToes  1.24767e-006 1.47042e-008 1.32732e-009
402
root  -1.99798 38.048 8.64204 9.64362 -40.9384 -5.40869
RightUpLeg  -9.97178 7.78089 -0.316749
RightLeg  27.985 -3.60014 -2.3067
RightFoot  -24.8487 -0.00767397 1.35741
RightToes  -2.08645e-008 3.77894e-005 6.81332e-007
Spine  10.311 0.183849 -4.22665
Spine1  2.95211 -2.15552 8.40591
HEad  -37.1003 28.3202 -11.3233
LeftShoulder1  9.45549 -14.9322 -44.7217
LeftArm  -6.88197 5.24491 -26.4156
LeftForeArm  62.0922 -78.4941 -60.1821
LeftHand  -1.01719 0.418769 23.6491
RightShoulder  4.33309 7.12213 34.8783
RightArm  4.53882 -10.8888 26.2911
RightForeArm  69.9153 78.6958 56.8645
RightHand  -0.519367 8.22114 -4.79502
LeftUpLeg  -32.4407 12.8712 14.3935
LeftLeg  18.5691 6.08697 2.59858
LeftFoot  18.3114 2.91082 -11.3978
LeftToes  1.24767e-006 1.47042e-008 1.32732e-009
